<mxfile host="Electron" modified="2023-04-22T13:14:35.090Z" agent="Mozilla/5.0 (Windows NT 10.0; Win64; x64) AppleWebKit/537.36 (KHTML, like Gecko) draw.io/21.1.2 Chrome/106.0.5249.199 Electron/21.4.3 Safari/537.36" etag="501_BRp2Wla4E_2KGbpe" version="21.1.2" type="device">
  <diagram name="Page-1" id="Qe5NpkyWLI_vIHsc7dSD">
    <mxGraphModel dx="2858" dy="1490" grid="0" gridSize="10" guides="0" tooltips="0" connect="0" arrows="0" fold="1" page="0" pageScale="1" pageWidth="850" pageHeight="1100" math="0" shadow="0">
      <root>
        <mxCell id="0" />
        <mxCell id="1" parent="0" />
        <mxCell id="CREizObTUWnjvp1a3Svo-51" value="" style="rounded=0;labelBackgroundColor=none;labelBorderColor=none;strokeColor=default;fontFamily=Helvetica;fontSize=16;fontColor=none;fillColor=default;noLabel=1;" vertex="1" parent="1">
          <mxGeometry x="-270" y="-320" width="1470" height="830" as="geometry" />
        </mxCell>
        <mxCell id="CREizObTUWnjvp1a3Svo-108" style="edgeStyle=orthogonalEdgeStyle;rounded=0;orthogonalLoop=1;jettySize=auto;html=1;fontFamily=Helvetica;fontSize=16;fontColor=default;" edge="1" parent="1" source="4nn6u_0jlApEZRZTeu81-1">
          <mxGeometry relative="1" as="geometry">
            <mxPoint x="-290" y="-30" as="targetPoint" />
          </mxGeometry>
        </mxCell>
        <mxCell id="4nn6u_0jlApEZRZTeu81-1" value="Πελάτης" style="shape=umlActor;verticalLabelPosition=bottom;verticalAlign=top;html=1;outlineConnect=0;fontSize=16;labelBackgroundColor=default;labelBorderColor=default;" parent="1" vertex="1">
          <mxGeometry x="-450" y="-60" width="30" height="60" as="geometry" />
        </mxCell>
        <mxCell id="4nn6u_0jlApEZRZTeu81-4" value="Premium Πελάτης" style="shape=umlActor;verticalLabelPosition=bottom;verticalAlign=top;html=1;outlineConnect=0;fontSize=16;labelBorderColor=default;labelBackgroundColor=default;" parent="1" vertex="1">
          <mxGeometry x="-450" y="192" width="30" height="60" as="geometry" />
        </mxCell>
        <mxCell id="CREizObTUWnjvp1a3Svo-22" value="Σύνδεση" style="ellipse;whiteSpace=wrap;html=1;labelBackgroundColor=none;labelBorderColor=none;strokeColor=default;fontFamily=Helvetica;fontSize=16;fontColor=default;fillColor=default;" vertex="1" parent="1">
          <mxGeometry x="-50" y="-10" width="120" height="80" as="geometry" />
        </mxCell>
        <mxCell id="CREizObTUWnjvp1a3Svo-23" value="Εγγραφή" style="ellipse;whiteSpace=wrap;html=1;labelBackgroundColor=none;labelBorderColor=none;strokeColor=default;fontFamily=Helvetica;fontSize=16;fontColor=default;fillColor=default;" vertex="1" parent="1">
          <mxGeometry x="-240" y="-30" width="120" height="80" as="geometry" />
        </mxCell>
        <mxCell id="CREizObTUWnjvp1a3Svo-24" value="Προβολή εναλλακτικών προΐόντων" style="ellipse;whiteSpace=wrap;html=1;labelBackgroundColor=none;labelBorderColor=none;strokeColor=default;fontFamily=Helvetica;fontSize=16;fontColor=default;fillColor=default;" vertex="1" parent="1">
          <mxGeometry x="320" y="192" width="120" height="80" as="geometry" />
        </mxCell>
        <mxCell id="CREizObTUWnjvp1a3Svo-25" value="Εξαργύρωση και αναβάθμιση πόντων" style="ellipse;whiteSpace=wrap;html=1;labelBackgroundColor=none;labelBorderColor=none;strokeColor=default;fontFamily=Helvetica;fontSize=16;fontColor=default;fillColor=default;" vertex="1" parent="1">
          <mxGeometry x="530" y="281" width="150" height="100" as="geometry" />
        </mxCell>
        <mxCell id="CREizObTUWnjvp1a3Svo-68" style="edgeStyle=orthogonalEdgeStyle;rounded=0;orthogonalLoop=1;jettySize=auto;html=1;fontFamily=Helvetica;fontSize=16;fontColor=default;" edge="1" parent="1" source="CREizObTUWnjvp1a3Svo-26" target="CREizObTUWnjvp1a3Svo-30">
          <mxGeometry relative="1" as="geometry" />
        </mxCell>
        <mxCell id="CREizObTUWnjvp1a3Svo-26" value="Δημιουργία Παραγγελίας" style="ellipse;html=1;labelBackgroundColor=none;labelBorderColor=none;strokeColor=default;fontFamily=Helvetica;fontSize=16;fontColor=default;fillColor=default;whiteSpace=wrap;" vertex="1" parent="1">
          <mxGeometry x="220" y="-90" width="120" height="80" as="geometry" />
        </mxCell>
        <mxCell id="CREizObTUWnjvp1a3Svo-27" value="Εισαγωγή Κωδικού Συνταγής&lt;br&gt;" style="ellipse;whiteSpace=wrap;html=1;labelBackgroundColor=none;labelBorderColor=none;strokeColor=default;fontFamily=Helvetica;fontSize=16;fontColor=default;fillColor=default;" vertex="1" parent="1">
          <mxGeometry x="-50" y="-230" width="120" height="80" as="geometry" />
        </mxCell>
        <mxCell id="CREizObTUWnjvp1a3Svo-28" value="Τροποποίηση προσωπικών στοιχείων" style="ellipse;whiteSpace=wrap;html=1;labelBackgroundColor=none;labelBorderColor=none;strokeColor=default;fontFamily=Helvetica;fontSize=16;fontColor=default;fillColor=default;" vertex="1" parent="1">
          <mxGeometry x="-100" y="102" width="120" height="80" as="geometry" />
        </mxCell>
        <mxCell id="CREizObTUWnjvp1a3Svo-29" value="Αποσύνδεση" style="ellipse;whiteSpace=wrap;html=1;labelBackgroundColor=none;labelBorderColor=none;strokeColor=default;fontFamily=Helvetica;fontSize=16;fontColor=default;fillColor=default;" vertex="1" parent="1">
          <mxGeometry x="-170" y="182" width="120" height="80" as="geometry" />
        </mxCell>
        <mxCell id="CREizObTUWnjvp1a3Svo-30" value="Ενδιαφέρον για out of stock προΐόντα" style="ellipse;whiteSpace=wrap;html=1;labelBackgroundColor=none;labelBorderColor=none;strokeColor=default;fontFamily=Helvetica;fontSize=16;fontColor=default;fillColor=default;align=center;" vertex="1" parent="1">
          <mxGeometry x="205" y="370" width="150" height="90" as="geometry" />
        </mxCell>
        <mxCell id="CREizObTUWnjvp1a3Svo-42" value="" style="endArrow=classic;html=1;rounded=0;fontFamily=Helvetica;fontSize=16;fontColor=default;entryX=-0.015;entryY=0.371;entryDx=0;entryDy=0;entryPerimeter=0;" edge="1" parent="1" target="CREizObTUWnjvp1a3Svo-29">
          <mxGeometry width="50" height="50" relative="1" as="geometry">
            <mxPoint x="-330" y="110" as="sourcePoint" />
            <mxPoint x="-230" y="16" as="targetPoint" />
          </mxGeometry>
        </mxCell>
        <mxCell id="CREizObTUWnjvp1a3Svo-44" value="" style="endArrow=classic;html=1;rounded=0;fontFamily=Helvetica;fontSize=16;fontColor=default;entryX=0;entryY=0.5;entryDx=0;entryDy=0;" edge="1" parent="1" target="CREizObTUWnjvp1a3Svo-28">
          <mxGeometry width="50" height="50" relative="1" as="geometry">
            <mxPoint x="-330" y="110" as="sourcePoint" />
            <mxPoint x="-230" y="16" as="targetPoint" />
          </mxGeometry>
        </mxCell>
        <mxCell id="CREizObTUWnjvp1a3Svo-45" value="" style="endArrow=classic;html=1;rounded=0;fontFamily=Helvetica;fontSize=16;fontColor=default;entryX=0;entryY=0.5;entryDx=0;entryDy=0;" edge="1" parent="1" target="CREizObTUWnjvp1a3Svo-22">
          <mxGeometry width="50" height="50" relative="1" as="geometry">
            <mxPoint x="-330" y="110" as="sourcePoint" />
            <mxPoint x="-230" y="16" as="targetPoint" />
          </mxGeometry>
        </mxCell>
        <mxCell id="CREizObTUWnjvp1a3Svo-46" value="" style="endArrow=classic;html=1;rounded=0;fontFamily=Helvetica;fontSize=16;fontColor=default;entryX=0;entryY=0.5;entryDx=0;entryDy=0;" edge="1" parent="1" target="CREizObTUWnjvp1a3Svo-23">
          <mxGeometry width="50" height="50" relative="1" as="geometry">
            <mxPoint x="-330" y="110" as="sourcePoint" />
            <mxPoint x="-230" y="16" as="targetPoint" />
          </mxGeometry>
        </mxCell>
        <mxCell id="CREizObTUWnjvp1a3Svo-52" value="" style="endArrow=classic;html=1;rounded=0;fontFamily=Helvetica;fontSize=16;fontColor=default;exitX=0.5;exitY=0;exitDx=0;exitDy=0;exitPerimeter=0;" edge="1" parent="1" source="4nn6u_0jlApEZRZTeu81-4">
          <mxGeometry width="50" height="50" relative="1" as="geometry">
            <mxPoint x="220" y="130" as="sourcePoint" />
            <mxPoint x="-330" y="110" as="targetPoint" />
          </mxGeometry>
        </mxCell>
        <mxCell id="CREizObTUWnjvp1a3Svo-55" value="" style="endArrow=classic;html=1;rounded=0;fontFamily=Helvetica;fontSize=16;fontColor=default;exitX=1;exitY=0.3333333333333333;exitDx=0;exitDy=0;exitPerimeter=0;" edge="1" parent="1" source="4nn6u_0jlApEZRZTeu81-1">
          <mxGeometry width="50" height="50" relative="1" as="geometry">
            <mxPoint x="220" y="130" as="sourcePoint" />
            <mxPoint x="-330" y="110" as="targetPoint" />
          </mxGeometry>
        </mxCell>
        <mxCell id="CREizObTUWnjvp1a3Svo-58" value="" style="endArrow=classic;html=1;rounded=0;fontFamily=Helvetica;fontSize=16;fontColor=default;entryX=0.033;entryY=0.36;entryDx=0;entryDy=0;entryPerimeter=0;" edge="1" parent="1" target="CREizObTUWnjvp1a3Svo-30">
          <mxGeometry width="50" height="50" relative="1" as="geometry">
            <mxPoint x="-320" y="270" as="sourcePoint" />
            <mxPoint x="140" y="50" as="targetPoint" />
          </mxGeometry>
        </mxCell>
        <mxCell id="CREizObTUWnjvp1a3Svo-67" value="Extends" style="endArrow=open;endSize=12;dashed=1;html=1;rounded=0;fontFamily=Helvetica;fontSize=16;fontColor=default;" edge="1" parent="1" source="CREizObTUWnjvp1a3Svo-26" target="CREizObTUWnjvp1a3Svo-24">
          <mxGeometry x="0.1415" y="25" width="160" relative="1" as="geometry">
            <mxPoint x="400" y="10" as="sourcePoint" />
            <mxPoint x="560" y="10" as="targetPoint" />
            <mxPoint as="offset" />
          </mxGeometry>
        </mxCell>
        <mxCell id="CREizObTUWnjvp1a3Svo-70" value="" style="endArrow=classic;html=1;rounded=0;fontFamily=Helvetica;fontSize=16;fontColor=default;entryX=0.01;entryY=0.635;entryDx=0;entryDy=0;entryPerimeter=0;" edge="1" parent="1" target="CREizObTUWnjvp1a3Svo-25">
          <mxGeometry width="50" height="50" relative="1" as="geometry">
            <mxPoint x="-320" y="270" as="sourcePoint" />
            <mxPoint x="490" y="-60" as="targetPoint" />
          </mxGeometry>
        </mxCell>
        <mxCell id="CREizObTUWnjvp1a3Svo-73" value="Extends" style="endArrow=open;endSize=12;dashed=1;html=1;rounded=0;fontFamily=Helvetica;fontSize=16;fontColor=default;" edge="1" parent="1" source="CREizObTUWnjvp1a3Svo-26" target="CREizObTUWnjvp1a3Svo-25">
          <mxGeometry x="0.1415" y="25" width="160" relative="1" as="geometry">
            <mxPoint x="280" y="80" as="sourcePoint" />
            <mxPoint x="555" y="-1" as="targetPoint" />
            <mxPoint as="offset" />
          </mxGeometry>
        </mxCell>
        <mxCell id="CREizObTUWnjvp1a3Svo-74" value="&lt;font style=&quot;font-size: 17px;&quot;&gt;Notification για προΐόντα που έχουν γίνει in stock&lt;/font&gt;" style="ellipse;whiteSpace=wrap;html=1;labelBackgroundColor=none;labelBorderColor=none;strokeColor=default;fontFamily=Helvetica;fontSize=16;fontColor=default;fillColor=default;align=center;" vertex="1" parent="1">
          <mxGeometry x="-30" y="400" width="165" height="100" as="geometry" />
        </mxCell>
        <mxCell id="CREizObTUWnjvp1a3Svo-75" value="" style="endArrow=classic;html=1;rounded=0;fontFamily=Helvetica;fontSize=16;fontColor=default;entryX=0;entryY=0.5;entryDx=0;entryDy=0;" edge="1" parent="1" target="CREizObTUWnjvp1a3Svo-74">
          <mxGeometry width="50" height="50" relative="1" as="geometry">
            <mxPoint x="-320" y="270" as="sourcePoint" />
            <mxPoint x="490" y="-70" as="targetPoint" />
          </mxGeometry>
        </mxCell>
        <mxCell id="CREizObTUWnjvp1a3Svo-76" value="Aγαπήμενα Προΐόντα" style="ellipse;whiteSpace=wrap;html=1;labelBackgroundColor=none;labelBorderColor=none;strokeColor=default;fontFamily=Helvetica;fontSize=16;fontColor=default;fillColor=default;" vertex="1" parent="1">
          <mxGeometry x="235" y="-240" width="120" height="80" as="geometry" />
        </mxCell>
        <mxCell id="CREizObTUWnjvp1a3Svo-79" value="Επιλογή Προΐόντος" style="ellipse;whiteSpace=wrap;html=1;labelBackgroundColor=none;labelBorderColor=none;strokeColor=default;fontFamily=Helvetica;fontSize=16;fontColor=default;fillColor=default;" vertex="1" parent="1">
          <mxGeometry x="730" y="-130" width="120" height="80" as="geometry" />
        </mxCell>
        <mxCell id="CREizObTUWnjvp1a3Svo-80" value="" style="endArrow=classic;html=1;rounded=0;fontFamily=Helvetica;fontSize=16;fontColor=default;exitX=1;exitY=0.3333333333333333;exitDx=0;exitDy=0;exitPerimeter=0;" edge="1" parent="1" source="4nn6u_0jlApEZRZTeu81-4">
          <mxGeometry width="50" height="50" relative="1" as="geometry">
            <mxPoint x="440" y="-30" as="sourcePoint" />
            <mxPoint x="-320" y="270" as="targetPoint" />
          </mxGeometry>
        </mxCell>
        <mxCell id="CREizObTUWnjvp1a3Svo-87" value="" style="endArrow=classic;html=1;rounded=0;fontFamily=Helvetica;fontSize=16;fontColor=default;entryX=0;entryY=0.5;entryDx=0;entryDy=0;exitX=1;exitY=0;exitDx=0;exitDy=0;" edge="1" parent="1" source="CREizObTUWnjvp1a3Svo-76" target="CREizObTUWnjvp1a3Svo-79">
          <mxGeometry width="50" height="50" relative="1" as="geometry">
            <mxPoint x="260" y="130" as="sourcePoint" />
            <mxPoint x="310" y="80" as="targetPoint" />
          </mxGeometry>
        </mxCell>
        <mxCell id="CREizObTUWnjvp1a3Svo-88" value="Ιncludes" style="text;html=1;strokeColor=none;fillColor=none;align=center;verticalAlign=middle;whiteSpace=wrap;rounded=0;fontSize=16;fontFamily=Helvetica;fontColor=default;" vertex="1" parent="1">
          <mxGeometry x="500" y="-190" width="60" height="30" as="geometry" />
        </mxCell>
        <mxCell id="CREizObTUWnjvp1a3Svo-89" value="Eπιλογή Καταστήματος" style="ellipse;whiteSpace=wrap;html=1;labelBackgroundColor=none;labelBorderColor=none;strokeColor=default;fontFamily=Helvetica;fontSize=16;fontColor=default;fillColor=default;" vertex="1" parent="1">
          <mxGeometry x="470" y="-130" width="120" height="80" as="geometry" />
        </mxCell>
        <mxCell id="CREizObTUWnjvp1a3Svo-90" value="" style="endArrow=classic;html=1;rounded=0;fontFamily=Helvetica;fontSize=16;fontColor=default;exitX=1;exitY=0;exitDx=0;exitDy=0;fontStyle=1" edge="1" parent="1" target="CREizObTUWnjvp1a3Svo-89">
          <mxGeometry width="50" height="50" relative="1" as="geometry">
            <mxPoint x="350" y="-188" as="sourcePoint" />
            <mxPoint x="603" y="-200" as="targetPoint" />
          </mxGeometry>
        </mxCell>
        <mxCell id="CREizObTUWnjvp1a3Svo-91" value="Ιncludes" style="text;html=1;strokeColor=none;fillColor=none;align=center;verticalAlign=middle;whiteSpace=wrap;rounded=0;fontSize=16;fontFamily=Helvetica;fontColor=default;fontStyle=0" vertex="1" parent="1">
          <mxGeometry x="380" y="-190" width="60" height="30" as="geometry" />
        </mxCell>
        <mxCell id="CREizObTUWnjvp1a3Svo-94" value="" style="endArrow=classic;html=1;rounded=0;fontFamily=Helvetica;fontSize=16;fontColor=default;entryX=0.025;entryY=0.625;entryDx=0;entryDy=0;entryPerimeter=0;" edge="1" parent="1" source="CREizObTUWnjvp1a3Svo-26" target="CREizObTUWnjvp1a3Svo-89">
          <mxGeometry width="50" height="50" relative="1" as="geometry">
            <mxPoint x="630" y="70" as="sourcePoint" />
            <mxPoint x="680" y="20" as="targetPoint" />
          </mxGeometry>
        </mxCell>
        <mxCell id="CREizObTUWnjvp1a3Svo-95" value="Ιncludes" style="text;html=1;strokeColor=none;fillColor=none;align=center;verticalAlign=middle;whiteSpace=wrap;rounded=0;fontSize=16;fontFamily=Helvetica;fontColor=default;fontStyle=0" vertex="1" parent="1">
          <mxGeometry x="340" y="-90" width="60" height="30" as="geometry" />
        </mxCell>
        <mxCell id="CREizObTUWnjvp1a3Svo-96" value="" style="endArrow=classic;html=1;rounded=0;fontFamily=Helvetica;fontSize=16;fontColor=default;entryX=0.09;entryY=0.784;entryDx=0;entryDy=0;entryPerimeter=0;exitX=1;exitY=1;exitDx=0;exitDy=0;" edge="1" parent="1" source="CREizObTUWnjvp1a3Svo-26" target="CREizObTUWnjvp1a3Svo-79">
          <mxGeometry width="50" height="50" relative="1" as="geometry">
            <mxPoint x="630" y="70" as="sourcePoint" />
            <mxPoint x="680" y="20" as="targetPoint" />
            <Array as="points">
              <mxPoint x="500" y="-10" />
            </Array>
          </mxGeometry>
        </mxCell>
        <mxCell id="CREizObTUWnjvp1a3Svo-98" value="Ιncludes" style="text;html=1;strokeColor=none;fillColor=none;align=center;verticalAlign=middle;whiteSpace=wrap;rounded=0;fontSize=16;fontFamily=Helvetica;fontColor=default;fontStyle=0" vertex="1" parent="1">
          <mxGeometry x="410" y="-50" width="60" height="30" as="geometry" />
        </mxCell>
        <mxCell id="CREizObTUWnjvp1a3Svo-143" style="edgeStyle=orthogonalEdgeStyle;rounded=0;orthogonalLoop=1;jettySize=auto;html=1;fontFamily=Helvetica;fontSize=16;fontColor=default;" edge="1" parent="1" source="CREizObTUWnjvp1a3Svo-100">
          <mxGeometry relative="1" as="geometry">
            <mxPoint x="1260" as="targetPoint" />
          </mxGeometry>
        </mxCell>
        <mxCell id="CREizObTUWnjvp1a3Svo-100" value="Φαρμακοποιός" style="shape=umlActor;verticalLabelPosition=bottom;verticalAlign=top;html=1;outlineConnect=0;labelBackgroundColor=default;labelBorderColor=default;strokeColor=default;fontFamily=Helvetica;fontSize=16;fontColor=default;fillColor=default;" vertex="1" parent="1">
          <mxGeometry x="1340" y="-20" width="30" height="60" as="geometry" />
        </mxCell>
        <mxCell id="CREizObTUWnjvp1a3Svo-101" value="" style="endArrow=classic;html=1;rounded=0;fontFamily=Helvetica;fontSize=16;fontColor=default;" edge="1" parent="1">
          <mxGeometry width="50" height="50" relative="1" as="geometry">
            <mxPoint x="-530" y="110" as="sourcePoint" />
            <mxPoint x="-330" y="110" as="targetPoint" />
          </mxGeometry>
        </mxCell>
        <mxCell id="CREizObTUWnjvp1a3Svo-102" value="" style="endArrow=none;html=1;rounded=0;fontFamily=Helvetica;fontSize=16;fontColor=default;" edge="1" parent="1">
          <mxGeometry width="50" height="50" relative="1" as="geometry">
            <mxPoint x="-530" y="550" as="sourcePoint" />
            <mxPoint x="-530" y="110" as="targetPoint" />
          </mxGeometry>
        </mxCell>
        <mxCell id="CREizObTUWnjvp1a3Svo-103" value="" style="endArrow=none;html=1;rounded=0;fontFamily=Helvetica;fontSize=16;fontColor=default;" edge="1" parent="1">
          <mxGeometry width="50" height="50" relative="1" as="geometry">
            <mxPoint x="-530" y="550" as="sourcePoint" />
            <mxPoint x="1360" y="540" as="targetPoint" />
          </mxGeometry>
        </mxCell>
        <mxCell id="CREizObTUWnjvp1a3Svo-104" value="" style="endArrow=none;html=1;rounded=0;fontFamily=Helvetica;fontSize=16;fontColor=default;" edge="1" parent="1">
          <mxGeometry width="50" height="50" relative="1" as="geometry">
            <mxPoint x="1360" y="540" as="sourcePoint" />
            <mxPoint x="1360" y="70" as="targetPoint" />
          </mxGeometry>
        </mxCell>
        <mxCell id="CREizObTUWnjvp1a3Svo-106" value="" style="endArrow=classic;html=1;rounded=0;fontFamily=Helvetica;fontSize=16;fontColor=default;entryX=0;entryY=0.5;entryDx=0;entryDy=0;" edge="1" parent="1" target="CREizObTUWnjvp1a3Svo-26">
          <mxGeometry width="50" height="50" relative="1" as="geometry">
            <mxPoint x="-290" y="-30" as="sourcePoint" />
            <mxPoint x="210" y="-10" as="targetPoint" />
          </mxGeometry>
        </mxCell>
        <mxCell id="CREizObTUWnjvp1a3Svo-107" value="" style="endArrow=classic;html=1;rounded=0;fontFamily=Helvetica;fontSize=16;fontColor=default;entryX=0;entryY=0.666;entryDx=0;entryDy=0;entryPerimeter=0;" edge="1" parent="1" target="CREizObTUWnjvp1a3Svo-76">
          <mxGeometry width="50" height="50" relative="1" as="geometry">
            <mxPoint x="-290" y="-30" as="sourcePoint" />
            <mxPoint x="210" y="-10" as="targetPoint" />
          </mxGeometry>
        </mxCell>
        <mxCell id="CREizObTUWnjvp1a3Svo-110" value="" style="endArrow=classic;html=1;rounded=0;fontFamily=Helvetica;fontSize=16;fontColor=default;exitX=0.75;exitY=0.1;exitDx=0;exitDy=0;exitPerimeter=0;" edge="1" parent="1" source="4nn6u_0jlApEZRZTeu81-4">
          <mxGeometry width="50" height="50" relative="1" as="geometry">
            <mxPoint x="160" y="40" as="sourcePoint" />
            <mxPoint x="-300" y="-30" as="targetPoint" />
          </mxGeometry>
        </mxCell>
        <mxCell id="CREizObTUWnjvp1a3Svo-111" value="" style="endArrow=classic;html=1;rounded=0;fontFamily=Helvetica;fontSize=16;fontColor=default;entryX=0.01;entryY=0.666;entryDx=0;entryDy=0;entryPerimeter=0;" edge="1" parent="1" target="CREizObTUWnjvp1a3Svo-27">
          <mxGeometry width="50" height="50" relative="1" as="geometry">
            <mxPoint x="-290" y="-30" as="sourcePoint" />
            <mxPoint x="310" y="-50" as="targetPoint" />
          </mxGeometry>
        </mxCell>
        <mxCell id="CREizObTUWnjvp1a3Svo-112" value="Διαχείριση Προΐόντων" style="ellipse;whiteSpace=wrap;html=1;labelBackgroundColor=none;labelBorderColor=none;strokeColor=default;fontFamily=Helvetica;fontSize=16;fontColor=default;fillColor=default;" vertex="1" parent="1">
          <mxGeometry x="980" y="-40" width="120" height="80" as="geometry" />
        </mxCell>
        <mxCell id="CREizObTUWnjvp1a3Svo-115" value="" style="endArrow=classic;html=1;rounded=0;fontFamily=Helvetica;fontSize=16;fontColor=default;entryX=1;entryY=0.5;entryDx=0;entryDy=0;" edge="1" parent="1" target="CREizObTUWnjvp1a3Svo-112">
          <mxGeometry width="50" height="50" relative="1" as="geometry">
            <mxPoint x="1260" as="sourcePoint" />
            <mxPoint x="820" as="targetPoint" />
          </mxGeometry>
        </mxCell>
        <mxCell id="CREizObTUWnjvp1a3Svo-116" value="Αναζήτηση προΐόντων από τους ανταγωνιστές" style="ellipse;whiteSpace=wrap;html=1;labelBackgroundColor=none;labelBorderColor=none;strokeColor=default;fontFamily=Helvetica;fontSize=16;fontColor=default;fillColor=default;" vertex="1" parent="1">
          <mxGeometry x="940" y="-310" width="150" height="90" as="geometry" />
        </mxCell>
        <mxCell id="CREizObTUWnjvp1a3Svo-117" value="" style="endArrow=classic;html=1;rounded=0;fontFamily=Helvetica;fontSize=16;fontColor=default;entryX=1;entryY=0.647;entryDx=0;entryDy=0;entryPerimeter=0;" edge="1" parent="1" target="CREizObTUWnjvp1a3Svo-116">
          <mxGeometry width="50" height="50" relative="1" as="geometry">
            <mxPoint x="1260" as="sourcePoint" />
            <mxPoint x="820" y="-30" as="targetPoint" />
          </mxGeometry>
        </mxCell>
        <mxCell id="CREizObTUWnjvp1a3Svo-118" value="" style="endArrow=classic;html=1;rounded=0;fontFamily=Helvetica;fontSize=16;fontColor=default;exitX=0;exitY=0.5;exitDx=0;exitDy=0;" edge="1" parent="1" source="CREizObTUWnjvp1a3Svo-116" target="CREizObTUWnjvp1a3Svo-89">
          <mxGeometry width="50" height="50" relative="1" as="geometry">
            <mxPoint x="770" y="20" as="sourcePoint" />
            <mxPoint x="820" y="-30" as="targetPoint" />
          </mxGeometry>
        </mxCell>
        <mxCell id="CREizObTUWnjvp1a3Svo-119" value="Ιncludes" style="text;html=1;strokeColor=none;fillColor=none;align=center;verticalAlign=middle;whiteSpace=wrap;rounded=0;fontSize=16;fontFamily=Helvetica;fontColor=default;fontStyle=0" vertex="1" parent="1">
          <mxGeometry x="740" y="-230" width="60" height="30" as="geometry" />
        </mxCell>
        <mxCell id="CREizObTUWnjvp1a3Svo-121" value="Προβολή ιστορικού παραγγελιών" style="ellipse;whiteSpace=wrap;html=1;labelBackgroundColor=none;labelBorderColor=none;strokeColor=default;fontFamily=Helvetica;fontSize=16;fontColor=default;fillColor=default;" vertex="1" parent="1">
          <mxGeometry x="980" y="272" width="120" height="80" as="geometry" />
        </mxCell>
        <mxCell id="CREizObTUWnjvp1a3Svo-122" value="Προσθήκη προΐοντος στο φαρμακείο" style="ellipse;html=1;labelBackgroundColor=none;labelBorderColor=none;strokeColor=default;fontFamily=Helvetica;fontSize=16;fontColor=default;fillColor=default;whiteSpace=wrap;" vertex="1" parent="1">
          <mxGeometry x="960" y="-215" width="120" height="80" as="geometry" />
        </mxCell>
        <mxCell id="CREizObTUWnjvp1a3Svo-123" value="Δημιουργία προσφορών" style="ellipse;html=1;labelBackgroundColor=none;labelBorderColor=none;strokeColor=default;fontFamily=Helvetica;fontSize=16;fontColor=default;fillColor=default;whiteSpace=wrap;" vertex="1" parent="1">
          <mxGeometry x="960" y="102" width="120" height="80" as="geometry" />
        </mxCell>
        <mxCell id="CREizObTUWnjvp1a3Svo-125" value="" style="endArrow=classic;html=1;rounded=0;fontFamily=Helvetica;fontSize=16;fontColor=default;entryX=0.607;entryY=0.978;entryDx=0;entryDy=0;entryPerimeter=0;" edge="1" parent="1" source="CREizObTUWnjvp1a3Svo-112" target="CREizObTUWnjvp1a3Svo-122">
          <mxGeometry width="50" height="50" relative="1" as="geometry">
            <mxPoint x="1260" as="sourcePoint" />
            <mxPoint x="400" y="-140" as="targetPoint" />
          </mxGeometry>
        </mxCell>
        <mxCell id="CREizObTUWnjvp1a3Svo-128" value="" style="endArrow=classic;html=1;rounded=0;fontFamily=Helvetica;fontSize=16;fontColor=default;entryX=0.603;entryY=0.008;entryDx=0;entryDy=0;entryPerimeter=0;exitX=0.5;exitY=1;exitDx=0;exitDy=0;" edge="1" parent="1" source="CREizObTUWnjvp1a3Svo-112" target="CREizObTUWnjvp1a3Svo-123">
          <mxGeometry width="50" height="50" relative="1" as="geometry">
            <mxPoint x="610" y="-40" as="sourcePoint" />
            <mxPoint x="660" y="-90" as="targetPoint" />
          </mxGeometry>
        </mxCell>
        <mxCell id="CREizObTUWnjvp1a3Svo-130" value="Προβολή χρηστών Premium που ενδιαφέρονται" style="ellipse;html=1;labelBackgroundColor=none;labelBorderColor=none;strokeColor=default;fontFamily=Helvetica;fontSize=16;fontColor=default;fillColor=default;whiteSpace=wrap;" vertex="1" parent="1">
          <mxGeometry x="760" y="82" width="150" height="100" as="geometry" />
        </mxCell>
        <mxCell id="CREizObTUWnjvp1a3Svo-131" value="" style="endArrow=classic;html=1;rounded=0;fontFamily=Helvetica;fontSize=16;fontColor=default;entryX=0.775;entryY=0.075;entryDx=0;entryDy=0;entryPerimeter=0;exitX=0.083;exitY=0.822;exitDx=0;exitDy=0;exitPerimeter=0;" edge="1" parent="1" source="CREizObTUWnjvp1a3Svo-112" target="CREizObTUWnjvp1a3Svo-130">
          <mxGeometry width="50" height="50" relative="1" as="geometry">
            <mxPoint x="330" y="110" as="sourcePoint" />
            <mxPoint x="380" y="60" as="targetPoint" />
          </mxGeometry>
        </mxCell>
        <mxCell id="CREizObTUWnjvp1a3Svo-132" value="Προσθήκη εναλλακτικού προΐόντος" style="ellipse;html=1;labelBackgroundColor=none;labelBorderColor=none;strokeColor=default;fontFamily=Helvetica;fontSize=16;fontColor=default;fillColor=default;whiteSpace=wrap;" vertex="1" parent="1">
          <mxGeometry x="590" y="40" width="150" height="100" as="geometry" />
        </mxCell>
        <mxCell id="CREizObTUWnjvp1a3Svo-133" value="" style="endArrow=classic;html=1;rounded=0;fontFamily=Helvetica;fontSize=16;fontColor=default;entryX=0;entryY=0.5;entryDx=0;entryDy=0;exitX=1;exitY=0;exitDx=0;exitDy=0;" edge="1" parent="1">
          <mxGeometry width="50" height="50" relative="1" as="geometry">
            <mxPoint x="337" y="-228" as="sourcePoint" />
            <mxPoint x="730" y="-90" as="targetPoint" />
          </mxGeometry>
        </mxCell>
        <mxCell id="CREizObTUWnjvp1a3Svo-134" value="Ιncludes" style="text;html=1;strokeColor=none;fillColor=none;align=center;verticalAlign=middle;whiteSpace=wrap;rounded=0;fontSize=16;fontFamily=Helvetica;fontColor=default;" vertex="1" parent="1">
          <mxGeometry x="690" y="-15" width="60" height="30" as="geometry" />
        </mxCell>
        <mxCell id="CREizObTUWnjvp1a3Svo-135" value="" style="endArrow=classic;html=1;rounded=0;fontFamily=Helvetica;fontSize=16;fontColor=default;exitX=1;exitY=0;exitDx=0;exitDy=0;" edge="1" parent="1" source="CREizObTUWnjvp1a3Svo-132">
          <mxGeometry width="50" height="50" relative="1" as="geometry">
            <mxPoint x="720" y="52.77" as="sourcePoint" />
            <mxPoint x="781.0608576546024" y="-49.999940262356155" as="targetPoint" />
          </mxGeometry>
        </mxCell>
        <mxCell id="CREizObTUWnjvp1a3Svo-137" value="" style="endArrow=classic;html=1;rounded=0;fontFamily=Helvetica;fontSize=16;fontColor=default;exitX=0;exitY=0.5;exitDx=0;exitDy=0;" edge="1" parent="1" source="CREizObTUWnjvp1a3Svo-112" target="CREizObTUWnjvp1a3Svo-132">
          <mxGeometry width="50" height="50" relative="1" as="geometry">
            <mxPoint x="330" y="110" as="sourcePoint" />
            <mxPoint x="380" y="60" as="targetPoint" />
          </mxGeometry>
        </mxCell>
        <mxCell id="CREizObTUWnjvp1a3Svo-142" value="" style="endArrow=classic;html=1;rounded=0;fontFamily=Helvetica;fontSize=16;fontColor=default;entryX=0.983;entryY=0.344;entryDx=0;entryDy=0;entryPerimeter=0;" edge="1" parent="1" target="CREizObTUWnjvp1a3Svo-121">
          <mxGeometry width="50" height="50" relative="1" as="geometry">
            <mxPoint x="1260" as="sourcePoint" />
            <mxPoint x="110" y="-60" as="targetPoint" />
          </mxGeometry>
        </mxCell>
        <mxCell id="CREizObTUWnjvp1a3Svo-211" value="" style="endArrow=classic;html=1;rounded=0;fontFamily=Helvetica;fontSize=16;fontColor=default;entryX=1;entryY=0;entryDx=0;entryDy=0;exitX=0.088;exitY=0.785;exitDx=0;exitDy=0;exitPerimeter=0;" edge="1" parent="1" source="CREizObTUWnjvp1a3Svo-116" target="CREizObTUWnjvp1a3Svo-79">
          <mxGeometry width="50" height="50" relative="1" as="geometry">
            <mxPoint x="490" y="50" as="sourcePoint" />
            <mxPoint x="540" as="targetPoint" />
          </mxGeometry>
        </mxCell>
        <mxCell id="CREizObTUWnjvp1a3Svo-212" value="Ιncludes" style="text;html=1;strokeColor=none;fillColor=none;align=center;verticalAlign=middle;whiteSpace=wrap;rounded=0;fontSize=16;fontFamily=Helvetica;fontColor=default;fontStyle=0" vertex="1" parent="1">
          <mxGeometry x="820" y="-190" width="60" height="30" as="geometry" />
        </mxCell>
      </root>
    </mxGraphModel>
  </diagram>
</mxfile>
